<svg id="bold" fill="#000" enable-background="new 0 0 24 24" height="87" viewBox="0 0 24 24" width="87" xmlns="http://www.w3.org/2000/svg"><path d="m22 23c-.256 0-.512-.098-.707-.293l-5.793-5.793-3.293 3.293c-.327.329-.839.388-1.233.143l-10.5-6.5c-.47-.291-.614-.907-.324-1.376.291-.469.906-.615 1.377-.324l9.826 6.083 3.44-3.44c.391-.391 1.023-.391 1.414 0l6.5 6.5c.391.391.391 1.023 0 1.414-.195.195-.451.293-.707.293z"/><path d="m23 24h-4c-.404 0-.77-.244-.924-.617-.155-.374-.069-.804.217-1.09l4-4c.286-.287.716-.371 1.09-.217.374.155.617.52.617.924v4c0 .552-.447 1-1 1z"/></svg>